# xmcd
#
# Track frame offsets:
#	150
#	19720
#	36460
#	56235
#	78547
#
# Disc length: 1324 seconds
# Revision: 0
# Processed by: cddbd v1.5.2PL0 Copyright (c) Steve Scherf et al.
# Submitted via: dBpowerAMP V12.0
#
DISCID=3e052a05
DTITLE=Blackstreet - Think About You Rmixes
DYEAR=1999
DGENRE=R&B
TTITLE0=Think About You [tunnel Mix Clean]
TTITLE1=All I Do
TTITLE2=Think About You [quiet Storm Mix]
TTITLE3=Think About You [club Mix]
TTITLE4=Think About You
EXTD=
EXTT0=
EXTT1=
EXTT2=
EXTT3=
EXTT4=
PLAYORDER=
